<svg width="556" height="195" viewBox="0 0 556 195" fill="none" xmlns="http://www.w3.org/2000/svg">
<path d="M71.8145 3.92698C73.1575 3.79559 76.5932 3.90495 78.1271 3.9118L89.8467 3.91227L114.061 4.08322C120.086 4.11677 126.141 4.00572 132.163 4.20827C133.027 4.23734 136.073 4.22496 136.601 4.71042C138.06 6.05402 150.286 38.9583 150.072 40.776C149.667 44.218 141.323 44.5963 139.173 46.5457C138.811 46.8742 138.591 47.1673 138.603 47.6782C138.649 49.8545 141.401 57.5213 142.178 60.0174L152.941 94.1684L161.571 122.35C163.067 127.297 166.339 140.683 169.636 144.18C172.295 146.999 183.927 151.783 187.966 151.79C189.758 151.794 197.188 148.583 198.331 146.599C199.346 144.957 199.914 143.948 199.958 141.817C200.091 135.516 199.92 129.062 199.89 122.765C199.887 112.435 199.948 102.106 200.075 91.7765L200.147 64.3216C200.155 60.9203 200.291 55.0898 200.133 52.031C199.042 44.6625 189.55 44.9364 184.669 41.4851C182.982 40.25 183.995 38.3246 184.827 36.8704C187.461 32.2613 189.984 27.2486 192.652 22.6893C195.719 17.449 198.246 9.43668 202.028 5.00163C204.238 4.11029 211.37 4.12564 213.978 4.09767L241.907 4.06905C247.81 4.0461 253.882 3.93154 259.778 4.11883C261.086 4.27221 262.137 4.16371 263.212 4.963C266.182 7.17047 269.433 20.2885 272.338 20.7677C275.254 19.3085 279.246 4.68736 282.728 4.39956C289.416 3.84668 297.186 4.09577 303.986 4.09062L348.639 4.09705C350.261 4.08733 357.352 3.91264 358.369 4.73631C365.035 10.1312 370.19 29.338 375.483 34.5044L375.575 34.5927C377.91 31.6 378.547 29.9316 381.637 27.1062C387.625 21.6307 395.827 20.6865 403.588 21.409C404.388 21.4834 406.562 21.3589 407.018 20.8551C410.884 16.5219 412.893 9.49574 417.035 5.3364C418.722 3.6416 427.593 4.08443 430.193 4.08188L448.637 4.09987L480.551 4.07032C486.66 4.05521 492.809 3.90429 498.915 4.10009C500.376 4.14694 502.71 4.09073 503.989 4.72838C507.892 6.67342 511.985 20.1816 514.539 21.2644C516.178 21.9596 518.781 21.474 520.553 21.4281C526.544 21.2729 533.258 22.5559 538.309 25.8608C543.929 29.5372 548.284 36.1926 549.618 42.7494C551.552 52.2662 544.578 59.9936 537.216 65.0005C536.027 65.8091 533.783 66.4773 533.027 67.6884C531.553 70.051 545.479 97.1495 547.27 101.378C548.736 104.839 550.047 108.65 550.795 112.333C553.18 124.083 546.95 139.931 539.059 148.845C536.925 151.256 534.277 153.352 531.609 155.145C528.909 156.96 519.869 160.863 518.92 162.32C516.119 166.619 507.756 188.64 505.132 190.069C504.214 190.567 503.099 190.604 502.077 190.642C487.042 191.197 471.865 190.583 456.815 190.549C450.323 190.535 421.089 191.498 416.834 190.043C414.537 189.258 409.686 177.72 408.426 175.132C406.244 170.703 404.718 164.849 401.839 161.115C391.87 156.895 383.835 152.797 377.827 143.285C373 135.642 370.107 125.267 370.707 116.229C371.553 103.488 379.745 91.5576 384.477 79.9986C385.95 76.4009 388.716 71.5546 389.535 67.8534C380.331 64.3342 374.8 60.8001 372.376 50.4935C372.062 49.1619 371.705 46.83 370.801 45.86C368.767 45.3572 367.177 45.9974 365.261 46.2707C361.502 46.8069 354.212 49.1636 351.113 50.903C346.814 53.3171 322.481 74.1444 320.724 76.8225C321.049 78.6701 330.643 95.8301 332.16 98.854C338.89 112.272 346.003 125.821 352.949 139.16C353.591 140.395 354.389 141.755 355.475 142.708C359.336 146.096 364.459 148.105 369.177 150.028C371.853 151.118 375.524 151.834 377.723 153.611C378.143 153.951 378.448 154.457 378.443 155.005C378.433 156.2 377.809 157.803 377.285 158.88C375.485 162.578 373.355 165.738 371.398 169.417C367.952 175.895 364.681 183.665 360.452 189.608C360.28 189.851 360.009 190.089 359.725 190.153C355.915 191.006 351.227 190.699 347.325 190.708L322.201 190.564C313.228 190.551 304.232 190.758 295.254 190.628C294.552 190.617 292.413 190.532 291.909 190.051C289.876 188.112 289.003 185.092 287.646 182.671C284.757 177.448 282.142 172.076 279.295 166.84C278.965 166.232 278.369 165.623 277.754 165.304C275.641 165.727 274.065 170.292 273.012 172.194C269.953 177.776 267.15 183.728 263.885 189.149C262.581 191.315 253.922 190.709 251.303 190.71C245.077 190.701 238.85 190.659 232.624 190.585C224.07 190.515 215.522 190.743 206.97 190.592C205.63 190.568 203.174 190.389 202.077 189.545C197.238 185.819 191.648 166.657 187.244 164.094C184.577 164.636 179.938 186.486 175.937 190.261C172.752 191.173 166.398 190.726 162.784 190.722L135.537 190.516C128.278 190.485 121.003 190.712 113.751 190.496C110.669 190.404 107.361 190.515 104.371 189.838C103.988 189.256 103.615 188.675 103.296 188.055C102.219 185.966 91.6101 155.905 91.9127 155.301C92.3922 154.343 93.6502 153.821 93.9801 152.631C94.143 152.044 94.0033 151.856 93.6916 151.354C92.2869 150.539 88.503 150.526 87.1565 151.648C86.3639 152.308 89.0435 154.659 89.5904 155.142C88.7354 159.755 79.8815 188.085 77.4686 190.215C74.4113 191.063 69.0275 190.609 65.5637 190.588L43.788 190.377C34.8953 190.319 25.9508 190.443 17.0573 190.324C15.7443 190.306 14.5123 190.018 13.247 189.68C9.00048 182.727 5.17803 166.609 2.14696 158.452C1.57036 156.071 1.52657 153.218 4.1303 152.137C22.7418 144.407 21.7116 140.005 27.0944 121.588L33.3805 100.752C37.9832 85.4951 42.8947 70.3068 47.4647 55.041C47.8267 53.8315 49.4658 48.3105 49.2794 47.462C47.5769 44.5524 41.5571 44.6073 38.8819 42.6311C37.098 41.3133 37.5431 39.7711 38.2422 38.0037C39.9768 33.6186 41.4818 28.6705 43.2933 24.3454C45.7754 18.4188 47.5859 9.69698 51.0123 4.51492C56.2387 3.61486 66.0001 4.22841 71.8145 3.92698ZM279.707 151.099C281.32 150.576 283.063 150.253 283.868 148.749C283.924 147.742 270.464 120.759 269.592 120.097C266.918 122.546 265.152 123.87 265.242 127.849C265.351 132.646 264.822 141.396 265.541 145.878C268.369 149.628 275.033 152.239 279.707 151.099Z" fill="#D2D1D1"/>
<path d="M288.797 16.242C295.428 16.0278 303.441 16.2437 310.198 16.2479L351.985 16.234C355.222 21.8922 358.86 29.037 361.801 34.8992C355.155 36.936 348.381 37.6985 342.597 42.1921C338.465 45.4009 334.566 48.8518 330.599 52.2601C322.331 59.434 314.023 66.5622 305.676 73.6442C314.398 89.6518 322.362 106.233 330.949 122.406C335.518 131.011 340.851 143.273 346.718 150.799C350.166 155.222 358.47 157.778 362.76 160.716C362.243 161.949 361.362 163.507 360.718 164.719C358.872 167.999 354.711 176.882 352.671 179.086C334.829 178.973 316.987 179.009 299.146 179.193C295.803 173.452 292.368 166.603 289.246 160.68C299.938 154.905 299.681 152.81 294.149 141.741C292.406 138.251 290.506 134.609 288.723 131.126L273.499 101.367C270.842 103.505 254.311 117.744 253.026 119.875C253.015 123.322 252.97 126.903 252.994 130.342C253.109 146.132 250.806 152.037 265.641 160.659C263.32 165.536 258.439 174.457 255.732 179.05L209.43 179.121C206.158 174.326 202.539 166.206 199.315 160.794C207.068 155.838 211.404 152.841 211.659 142.828C211.786 137.854 211.771 132.839 211.774 127.857L211.783 101.914L211.781 73.2577C211.781 67.3292 211.699 61.1613 211.754 55.2467C211.85 44.8085 209.022 39.4751 199.271 34.9187C201.625 30.5453 206.937 19.6351 209.435 16.2671C213.125 15.9921 220.538 16.2345 224.569 16.2397L255.703 16.2181C259.097 21.9449 262.57 28.9816 265.718 34.9378C256.593 39.0922 253.099 44.3117 253.066 54.2966C253.045 61.0391 253.008 67.8787 253.01 74.6297L270.705 58.8157C274.904 55.043 279.399 51.4241 283.161 47.237C288.251 41.5737 283.927 37.9547 278.822 35.0645C279.939 32.1105 287.107 18.7177 288.797 16.242Z" fill="#120374"/>
<path d="M424.098 16.2581C426.393 16.1238 430.071 16.2428 432.487 16.243L449.149 16.2438L497.717 16.2713C500.312 20.6508 502.88 25.425 505.395 29.888C497.232 30.3402 487.563 31.6932 483.231 39.8434C480.087 45.7589 480.586 54.3486 480.58 61.0026L480.572 79.119C480.572 85.0349 479.863 109.405 481.341 113.797C482.2 116.349 484.316 118.55 486.698 119.741C490.111 121.446 495.491 121.896 499.119 120.677C501.594 119.847 503.532 118.065 504.895 115.875C510.29 107.204 506.113 95.9374 503.665 87.0284C500.433 75.266 493.699 55.3849 499.513 43.776C501.875 39.0586 506.904 36.2787 511.741 34.7031C517.153 32.9401 525.426 32.1947 530.644 34.8985C533.948 36.6103 536.482 40.0778 537.57 43.5914C540.455 52.9087 524.515 56.2031 520.943 63.1038C516.359 71.9643 533.979 98.1484 537.162 108.294C539.994 117.317 538.997 126.034 534.64 134.345C530.545 142.155 524.144 147.424 515.757 150.04C508.543 152.291 498.949 152.414 491.678 150.343C487.779 149.233 484.133 147.454 480.553 145.585C481.936 160.166 491.218 163.605 503.86 166.744C501.885 170.821 499.97 174.927 498.116 179.061L423.613 179.128C421.509 175.451 419.447 170.604 417.709 166.67C430.769 163.821 438.651 160.038 440.664 145.83C430.973 150.336 426.798 152.209 415.619 151.529C406.412 150.969 396.867 147.561 390.542 140.638C383.866 133.328 381.288 120.741 383.667 111.293C384.808 106.763 389.207 97.8692 391.331 93.4227C393.749 88.3605 396.06 83.2477 398.263 78.0879C399.443 75.3817 402.357 68.9984 402.309 66.3502C402.357 56.1913 390.662 57.5909 385.456 52.2469C380.954 47.6268 386.101 37.8823 390.748 35.1201C394.161 33.0916 397.889 32.9849 401.693 33.1292C419.492 33.64 427.691 52.4864 423.379 67.8968C419.873 80.4307 414.321 92.4639 414.27 105.73C414.237 114.255 416.109 120.833 425.775 121.295C430.316 121.513 433.341 120.902 436.893 117.827C439.812 115.301 440.405 112.891 440.582 109.117C440.719 104.909 440.654 100.563 440.656 96.3337L440.66 72.7457L440.653 56.8259C440.65 53.4254 440.724 48.0459 440.175 44.7447C439.72 41.9454 438.469 39.3359 436.571 37.2268C431.847 32.0095 423.106 30.3325 416.32 29.9845C417.075 27.6449 422.501 18.404 424.098 16.2581Z" fill="#120374"/>
<path d="M59.0601 16.2268L128.828 16.2583C131.265 22.0811 133.491 28.7176 135.617 34.6919C122.172 42.0856 125.891 47.0173 129.856 59.8715L136.691 81.9998L149.962 125.021C151.904 131.265 153.911 137.745 155.849 143.984C159.173 154.682 165.579 156.048 174.824 160.608C173.098 166.654 170.004 172.901 168.396 178.989C150.277 179.428 130.919 179.032 112.668 179.076C110.133 173.197 108.072 166.783 105.7 160.771C108.655 158.375 110.861 157.908 113.206 154.338C115.517 149.982 113.825 144.093 112.704 139.546C108.765 139.374 103.502 139.544 99.4433 139.549C89.5203 139.606 79.5965 139.576 69.6738 139.459C68.5012 142.918 67.357 147.598 67.7898 151.234C68.2943 155.471 72.9259 158.24 76.1376 160.64C74.5279 166.41 71.1884 173.131 69.3261 179.114L21.3936 179.083C20.5936 175.096 16.3323 165.388 14.8934 160.591C20.6068 156.632 28.4309 153.91 31.5869 146.32C34.4725 139.381 36.6199 131.289 38.815 124.014L49.1532 89.8026L56.7175 64.9589C58.2478 59.9662 59.7973 55.1364 61.0094 50.0489C62.8817 42.1907 59.3301 37.8714 52.2686 34.901C54.1755 28.8302 56.8939 22.3127 59.0601 16.2268Z" fill="#120374"/>
<path d="M90.7769 69.8328C92.0644 70.7185 104.007 112.78 105.799 117.437C105.875 117.632 106.232 119.032 106.313 119.343L91.3547 119.369L75.6329 119.349C76.9752 115.538 78.3462 110.576 79.5348 106.642L86.5683 83.3002C87.7133 79.5005 89.342 73.384 90.7769 69.8328Z" fill="#D2D1D1"/>
</svg>
