<svg width="116" height="41" viewBox="0 0 116 41" fill="none" xmlns="http://www.w3.org/2000/svg">
<path d="M57.9009 3.38638C59.2844 3.34133 60.9563 3.38674 62.3659 3.38763L71.0842 3.38469C71.7594 4.57438 72.5184 6.07662 73.1321 7.30919C71.7455 7.73743 70.3323 7.89774 69.1254 8.84256C68.2635 9.51723 67.45 10.2428 66.6223 10.9594C64.8973 12.4678 63.164 13.9665 61.4225 15.4556C63.2422 18.8213 64.9039 22.3076 66.6954 25.708C67.6486 27.5173 68.7611 30.0954 69.9853 31.6779C70.7046 32.6078 72.4371 33.1452 73.3322 33.763C73.2244 34.0223 73.0404 34.3498 72.9061 34.6047C72.521 35.2942 71.6529 37.162 71.2272 37.6254C67.5048 37.6017 63.7824 37.6092 60.0601 37.648C59.3628 36.4407 58.646 35.0007 57.9947 33.7553C60.2255 32.5411 60.1717 32.1006 59.0177 29.7733C58.6539 29.0396 58.2576 28.2739 57.8856 27.5415L54.7095 21.2844C54.1551 21.7339 50.7061 24.7278 50.4381 25.176C50.4356 25.9006 50.4263 26.6536 50.4314 27.3767C50.4553 30.6967 49.9748 31.938 53.0699 33.7511C52.5857 34.7765 51.5674 36.652 51.0026 37.6177L41.3425 37.6328C40.6598 36.6244 39.9047 34.9173 39.2321 33.7794C40.8497 32.7374 41.7542 32.1072 41.8075 30.0019C41.8339 28.9561 41.8308 27.9016 41.8314 26.8542L41.8333 21.3995L41.833 15.3743C41.8329 14.1278 41.8159 12.831 41.8273 11.5874C41.8474 9.39267 41.2573 8.27129 39.223 7.31329C39.7141 6.39373 40.8223 4.09979 41.3434 3.39166C42.1134 3.33383 43.66 3.38481 44.501 3.3859L50.9966 3.38136C51.7046 4.58545 52.4292 6.06497 53.0859 7.3173C51.1822 8.19078 50.4532 9.28821 50.4465 11.3876C50.4419 12.8053 50.4342 14.2433 50.4346 15.6628L54.1264 12.3378C55.0025 11.5445 55.9402 10.7836 56.7253 9.90327C57.7871 8.71252 56.8849 7.95162 55.8198 7.34393C56.053 6.72283 57.5484 3.90691 57.9009 3.38638Z" fill="black"/>
<path d="M84.7676 3.37755C85.2464 3.3493 86.0137 3.37433 86.5177 3.37437L89.994 3.37454L100.127 3.38032C100.668 4.30114 101.204 5.30493 101.729 6.24332C100.026 6.33839 98.0084 6.62288 97.1046 8.33649C96.4486 9.58027 96.5529 11.3863 96.5516 12.7854L96.5499 16.5944C96.5499 17.8383 96.402 22.9623 96.7103 23.8857C96.8896 24.4222 97.331 24.8852 97.828 25.1354C98.54 25.494 99.6625 25.5885 100.419 25.3323C100.936 25.1579 101.34 24.7831 101.624 24.3227C102.75 22.4995 101.879 20.1306 101.368 18.2575C100.694 15.7843 99.2885 11.6042 100.502 9.16335C100.994 8.1715 102.044 7.587 103.053 7.25571C104.182 6.88503 105.908 6.72832 106.997 7.29682C107.686 7.65673 108.215 8.3858 108.442 9.12454C109.043 11.0836 105.718 11.7762 104.973 13.2272C104.016 15.0901 107.692 20.5955 108.356 22.7287C108.947 24.6257 108.739 26.4587 107.83 28.206C106.976 29.8482 105.64 30.956 103.891 31.5061C102.386 31.9794 100.384 32.0052 98.867 31.5698C98.0535 31.3363 97.2928 30.9623 96.5458 30.5693C96.8344 33.6351 98.7709 34.3583 101.408 35.0181C100.996 35.8754 100.597 36.7388 100.21 37.6079L84.6664 37.622C84.2274 36.8489 83.7971 35.8297 83.4345 35.0026C86.1593 34.4037 87.8038 33.6082 88.2237 30.6209C86.2019 31.5683 85.3307 31.9621 82.9986 31.8192C81.0776 31.7014 79.0862 30.9849 77.7667 29.5292C76.3737 27.9923 75.836 25.3458 76.3322 23.3593C76.5703 22.4069 77.488 20.5368 77.9312 19.6019C78.4358 18.5375 78.9179 17.4625 79.3774 16.3776C79.6236 15.8087 80.2316 14.4665 80.2216 13.9097C80.2316 11.7737 77.7916 12.068 76.7054 10.9444C75.7663 9.97302 76.84 7.92416 77.8096 7.34341C78.5217 6.9169 79.2995 6.89447 80.093 6.92481C83.8065 7.03219 85.5172 10.9948 84.6176 14.2349C83.886 16.8702 82.7278 19.4003 82.7171 22.1895C82.7102 23.982 83.1007 25.3651 85.1175 25.4623C86.0648 25.508 86.6959 25.3797 87.4371 24.7331C88.0459 24.2019 88.1697 23.6953 88.2067 22.9017C88.2353 22.0169 88.2217 21.1031 88.2221 20.214L88.223 15.2544L88.2214 11.9072C88.2208 11.1922 88.2363 10.0611 88.1218 9.36703C88.0267 8.77847 87.7657 8.2298 87.3698 7.78634C86.3841 6.68938 84.5605 6.33678 83.1448 6.2636C83.3024 5.7717 84.4342 3.82874 84.7676 3.37755Z" fill="black"/>
<path d="M26.6914 3.37109C27.1995 4.59514 27.6639 5.99018 28.1074 7.24609C25.3024 8.80064 26.079 9.83837 26.9062 12.541L28.332 17.1934L31.1006 26.2393C31.5057 27.552 31.9248 28.9141 32.3291 30.2256C33.0225 32.4748 34.3591 32.7629 36.2881 33.7217C35.9279 34.9927 35.2818 36.306 34.9463 37.5859C31.1663 37.6784 27.1279 37.5954 23.3203 37.6045C22.7915 36.3686 22.3609 35.0198 21.8662 33.7559C22.4825 33.2521 22.9433 33.1539 23.4326 32.4033C23.9148 31.4875 23.5611 30.2491 23.3271 29.293C22.5054 29.2568 21.4074 29.2919 20.5605 29.293C18.4903 29.3051 16.4198 29.299 14.3496 29.2744C14.105 30.0016 13.8668 30.9855 13.957 31.75C14.0623 32.6408 15.0282 33.223 15.6982 33.7275C15.3624 34.9407 14.6659 36.3544 14.2773 37.6123L4.27734 37.6055C4.1104 36.7673 3.22114 34.7264 2.9209 33.7178C4.11289 32.8854 5.74487 32.3126 6.40332 30.7168C7.00529 29.2578 7.45418 27.5568 7.91211 26.0273L10.0684 18.834L11.6465 13.6104C11.9657 12.5607 12.2891 11.5452 12.542 10.4756C12.9326 8.82335 12.192 7.91458 10.7188 7.29004C11.1166 6.01377 11.6839 4.6437 12.1357 3.36426L26.6914 3.37109ZM18.7529 14.6348C18.4536 15.3814 18.1139 16.6679 17.875 17.4668L16.4072 22.375C16.1593 23.2019 15.8727 24.2446 15.5928 25.0459L18.873 25.0508L21.9941 25.0449C21.9773 24.9797 21.9026 24.6866 21.8867 24.6445C21.5127 23.6654 19.0216 14.8211 18.7529 14.6348Z" fill="black"/>
</svg>
