<svg width="95" height="95" viewBox="0 0 95 95" fill="none" xmlns="http://www.w3.org/2000/svg">
<path d="M23.75 19.7917H71.25C72.2998 19.7917 73.3066 20.2087 74.049 20.9511C74.7913 21.6934 75.2083 22.7002 75.2083 23.75C75.2083 24.7998 74.7913 25.8067 74.049 26.549C73.3066 27.2913 72.2998 27.7084 71.25 27.7084H23.75C22.7002 27.7084 21.6934 27.2913 20.951 26.549C20.2087 25.8067 19.7917 24.7998 19.7917 23.75C19.7917 22.7002 20.2087 21.6934 20.951 20.9511C21.6934 20.2087 22.7002 19.7917 23.75 19.7917ZM83.125 7.91669V15.8334H11.875V7.91669H83.125ZM59.375 31.6667H67.2917V87.0834H59.375V31.6667ZM27.7083 31.6667H35.625V87.0834H27.7083V31.6667ZM43.5417 31.6667H51.4583V87.0834H43.5417V31.6667Z" fill="#120374"/>
</svg>
