<svg width="72" height="80" viewBox="0 0 72 80" fill="none" xmlns="http://www.w3.org/2000/svg">
<path d="M11.875 11.875H59.375C60.4248 11.875 61.4316 12.292 62.174 13.0344C62.9163 13.7767 63.3333 14.7835 63.3333 15.8333C63.3333 16.8832 62.9163 17.89 62.174 18.6323C61.4316 19.3746 60.4248 19.7917 59.375 19.7917H11.875C10.8252 19.7917 9.81837 19.3746 9.07604 18.6323C8.33371 17.89 7.91667 16.8832 7.91667 15.8333C7.91667 14.7835 8.33371 13.7767 9.07604 13.0344C9.81837 12.292 10.8252 11.875 11.875 11.875ZM71.25 0V7.91667H0V0H71.25ZM47.5 23.75H55.4167V79.1667H47.5V23.75ZM15.8333 23.75H23.75V79.1667H15.8333V23.75ZM31.6667 23.75H39.5833V79.1667H31.6667V23.75Z" fill="black"/>
</svg>
